<mxfile host="app.diagrams.net" modified="2023-09-13T07:26:59.997Z" agent="Mozilla/5.0 (Windows NT 10.0; Win64; x64) AppleWebKit/537.36 (KHTML, like Gecko) Chrome/116.0.0.0 Safari/537.36" etag="yw7rVH7XHjGlg3LCqvVH" version="21.7.4" type="device">
  <diagram name="Page-1" id="3s3prXGsOmCxnwYLiAMr">
    <mxGraphModel dx="838" dy="455" grid="1" gridSize="10" guides="1" tooltips="1" connect="1" arrows="1" fold="1" page="1" pageScale="1" pageWidth="850" pageHeight="1100" math="0" shadow="0">
      <root>
        <mxCell id="0" />
        <mxCell id="1" parent="0" />
        <mxCell id="mMJrCjRWokDh-udOJpZP-48" style="edgeStyle=orthogonalEdgeStyle;rounded=0;orthogonalLoop=1;jettySize=auto;html=1;entryX=0.5;entryY=0;entryDx=0;entryDy=0;" parent="1" target="mMJrCjRWokDh-udOJpZP-24" edge="1">
          <mxGeometry relative="1" as="geometry">
            <Array as="points">
              <mxPoint x="425" y="770" />
              <mxPoint x="518" y="770" />
              <mxPoint x="518" y="820" />
              <mxPoint x="550" y="820" />
              <mxPoint x="550" y="815" />
            </Array>
            <mxPoint x="425" y="740" as="sourcePoint" />
            <mxPoint x="430" y="1045" as="targetPoint" />
          </mxGeometry>
        </mxCell>
        <mxCell id="mMJrCjRWokDh-udOJpZP-68" value="CASH" style="edgeLabel;html=1;align=center;verticalAlign=middle;resizable=0;points=[];" parent="mMJrCjRWokDh-udOJpZP-48" vertex="1" connectable="0">
          <mxGeometry x="-0.1122" y="-2" relative="1" as="geometry">
            <mxPoint as="offset" />
          </mxGeometry>
        </mxCell>
        <mxCell id="mMJrCjRWokDh-udOJpZP-49" style="edgeStyle=orthogonalEdgeStyle;rounded=0;orthogonalLoop=1;jettySize=auto;html=1;entryX=0.408;entryY=0.025;entryDx=0;entryDy=0;entryPerimeter=0;" parent="1" target="mMJrCjRWokDh-udOJpZP-23" edge="1">
          <mxGeometry relative="1" as="geometry">
            <Array as="points">
              <mxPoint x="400" y="770" />
              <mxPoint x="260" y="770" />
            </Array>
            <mxPoint x="400" y="739.9998334620741" as="sourcePoint" />
            <mxPoint x="260" y="936.27" as="targetPoint" />
          </mxGeometry>
        </mxCell>
        <mxCell id="mMJrCjRWokDh-udOJpZP-67" value="CASH" style="edgeLabel;html=1;align=center;verticalAlign=middle;resizable=0;points=[];" parent="mMJrCjRWokDh-udOJpZP-49" vertex="1" connectable="0">
          <mxGeometry x="-0.3774" y="2" relative="1" as="geometry">
            <mxPoint as="offset" />
          </mxGeometry>
        </mxCell>
        <mxCell id="mMJrCjRWokDh-udOJpZP-57" style="edgeStyle=orthogonalEdgeStyle;rounded=0;orthogonalLoop=1;jettySize=auto;html=1;entryX=1;entryY=1;entryDx=0;entryDy=0;" parent="1" source="mMJrCjRWokDh-udOJpZP-20" target="mMJrCjRWokDh-udOJpZP-21" edge="1">
          <mxGeometry relative="1" as="geometry" />
        </mxCell>
        <mxCell id="mMJrCjRWokDh-udOJpZP-65" value="CASH" style="edgeLabel;html=1;align=center;verticalAlign=middle;resizable=0;points=[];" parent="mMJrCjRWokDh-udOJpZP-57" vertex="1" connectable="0">
          <mxGeometry x="0.4419" relative="1" as="geometry">
            <mxPoint as="offset" />
          </mxGeometry>
        </mxCell>
        <mxCell id="mMJrCjRWokDh-udOJpZP-58" style="edgeStyle=orthogonalEdgeStyle;rounded=0;orthogonalLoop=1;jettySize=auto;html=1;entryX=0;entryY=1;entryDx=0;entryDy=0;" parent="1" source="mMJrCjRWokDh-udOJpZP-20" target="mMJrCjRWokDh-udOJpZP-22" edge="1">
          <mxGeometry relative="1" as="geometry" />
        </mxCell>
        <mxCell id="mMJrCjRWokDh-udOJpZP-66" value="BANK DETAILS" style="edgeLabel;html=1;align=center;verticalAlign=middle;resizable=0;points=[];" parent="mMJrCjRWokDh-udOJpZP-58" vertex="1" connectable="0">
          <mxGeometry x="0.2356" y="-2" relative="1" as="geometry">
            <mxPoint as="offset" />
          </mxGeometry>
        </mxCell>
        <mxCell id="80Ur0tt7wAr0ku26tHPa-10" style="edgeStyle=orthogonalEdgeStyle;rounded=0;orthogonalLoop=1;jettySize=auto;html=1;entryX=0.5;entryY=0;entryDx=0;entryDy=0;" edge="1" parent="1" source="mMJrCjRWokDh-udOJpZP-20" target="80Ur0tt7wAr0ku26tHPa-9">
          <mxGeometry relative="1" as="geometry" />
        </mxCell>
        <mxCell id="80Ur0tt7wAr0ku26tHPa-11" value="BANK DETAILS" style="edgeLabel;html=1;align=center;verticalAlign=middle;resizable=0;points=[];" vertex="1" connectable="0" parent="80Ur0tt7wAr0ku26tHPa-10">
          <mxGeometry x="-0.1" y="5" relative="1" as="geometry">
            <mxPoint as="offset" />
          </mxGeometry>
        </mxCell>
        <mxCell id="mMJrCjRWokDh-udOJpZP-20" value="1.0&lt;hr&gt;CASH ENCHEQUE SYSTEM" style="ellipse;whiteSpace=wrap;html=1;" parent="1" vertex="1">
          <mxGeometry x="365" y="540" width="120" height="80" as="geometry" />
        </mxCell>
        <mxCell id="mMJrCjRWokDh-udOJpZP-55" style="edgeStyle=orthogonalEdgeStyle;rounded=0;orthogonalLoop=1;jettySize=auto;html=1;entryX=0;entryY=0;entryDx=0;entryDy=0;" parent="1" source="mMJrCjRWokDh-udOJpZP-21" target="mMJrCjRWokDh-udOJpZP-20" edge="1">
          <mxGeometry relative="1" as="geometry" />
        </mxCell>
        <mxCell id="mMJrCjRWokDh-udOJpZP-63" value="CHEQUE" style="edgeLabel;html=1;align=center;verticalAlign=middle;resizable=0;points=[];" parent="mMJrCjRWokDh-udOJpZP-55" vertex="1" connectable="0">
          <mxGeometry x="0.1976" y="3" relative="1" as="geometry">
            <mxPoint as="offset" />
          </mxGeometry>
        </mxCell>
        <mxCell id="mMJrCjRWokDh-udOJpZP-21" value="CUSTOMER" style="rounded=0;whiteSpace=wrap;html=1;" parent="1" vertex="1">
          <mxGeometry x="90" y="540" width="120" height="60" as="geometry" />
        </mxCell>
        <mxCell id="mMJrCjRWokDh-udOJpZP-56" style="edgeStyle=orthogonalEdgeStyle;rounded=0;orthogonalLoop=1;jettySize=auto;html=1;entryX=0.95;entryY=0.255;entryDx=0;entryDy=0;entryPerimeter=0;" parent="1" source="mMJrCjRWokDh-udOJpZP-22" target="mMJrCjRWokDh-udOJpZP-20" edge="1">
          <mxGeometry relative="1" as="geometry" />
        </mxCell>
        <mxCell id="mMJrCjRWokDh-udOJpZP-64" value="CASH" style="edgeLabel;html=1;align=center;verticalAlign=middle;resizable=0;points=[];" parent="mMJrCjRWokDh-udOJpZP-56" vertex="1" connectable="0">
          <mxGeometry x="-0.2027" relative="1" as="geometry">
            <mxPoint as="offset" />
          </mxGeometry>
        </mxCell>
        <mxCell id="mMJrCjRWokDh-udOJpZP-22" value="BANK" style="rounded=0;whiteSpace=wrap;html=1;" parent="1" vertex="1">
          <mxGeometry x="650" y="540" width="120" height="60" as="geometry" />
        </mxCell>
        <mxCell id="mMJrCjRWokDh-udOJpZP-33" style="edgeStyle=orthogonalEdgeStyle;rounded=0;orthogonalLoop=1;jettySize=auto;html=1;entryX=1;entryY=0.5;entryDx=0;entryDy=0;" parent="1" source="mMJrCjRWokDh-udOJpZP-23" target="mMJrCjRWokDh-udOJpZP-30" edge="1">
          <mxGeometry relative="1" as="geometry" />
        </mxCell>
        <mxCell id="mMJrCjRWokDh-udOJpZP-70" value="CASH" style="edgeLabel;html=1;align=center;verticalAlign=middle;resizable=0;points=[];" parent="mMJrCjRWokDh-udOJpZP-33" vertex="1" connectable="0">
          <mxGeometry x="-0.5" y="1" relative="1" as="geometry">
            <mxPoint as="offset" />
          </mxGeometry>
        </mxCell>
        <mxCell id="mMJrCjRWokDh-udOJpZP-23" value="2.0&lt;hr&gt;TRANSACTION TRACKER" style="ellipse;whiteSpace=wrap;html=1;" parent="1" vertex="1">
          <mxGeometry x="150" y="790" width="120" height="80" as="geometry" />
        </mxCell>
        <mxCell id="mMJrCjRWokDh-udOJpZP-35" style="edgeStyle=orthogonalEdgeStyle;rounded=0;orthogonalLoop=1;jettySize=auto;html=1;entryX=1;entryY=0.5;entryDx=0;entryDy=0;" parent="1" source="mMJrCjRWokDh-udOJpZP-24" target="mMJrCjRWokDh-udOJpZP-25" edge="1">
          <mxGeometry relative="1" as="geometry" />
        </mxCell>
        <mxCell id="mMJrCjRWokDh-udOJpZP-69" value="WITHDRAWN DATA" style="edgeLabel;html=1;align=center;verticalAlign=middle;resizable=0;points=[];" parent="mMJrCjRWokDh-udOJpZP-35" vertex="1" connectable="0">
          <mxGeometry x="0.0174" y="-2" relative="1" as="geometry">
            <mxPoint as="offset" />
          </mxGeometry>
        </mxCell>
        <mxCell id="mMJrCjRWokDh-udOJpZP-24" value="3.0&lt;hr&gt;BALANCE TRACKER" style="ellipse;whiteSpace=wrap;html=1;" parent="1" vertex="1">
          <mxGeometry x="550" y="815" width="120" height="80" as="geometry" />
        </mxCell>
        <mxCell id="mMJrCjRWokDh-udOJpZP-28" value="" style="group" parent="1" vertex="1" connectable="0">
          <mxGeometry x="600" y="945" width="120" height="60" as="geometry" />
        </mxCell>
        <mxCell id="mMJrCjRWokDh-udOJpZP-25" value="&amp;nbsp; &amp;nbsp; &amp;nbsp; &amp;nbsp; &amp;nbsp; &amp;nbsp; &lt;span style=&quot;white-space: pre;&quot;&gt;&#x9;&lt;/span&gt;BANK&amp;nbsp; &amp;nbsp; &amp;nbsp; &amp;nbsp; &amp;nbsp; &amp;nbsp; &amp;nbsp; &lt;span style=&quot;white-space: pre;&quot;&gt;&#x9;&lt;/span&gt;BALANCE" style="shape=partialRectangle;whiteSpace=wrap;html=1;left=0;right=0;fillColor=none;" parent="mMJrCjRWokDh-udOJpZP-28" vertex="1">
          <mxGeometry width="120" height="60" as="geometry" />
        </mxCell>
        <mxCell id="mMJrCjRWokDh-udOJpZP-26" value="" style="line;strokeWidth=2;direction=south;html=1;" parent="mMJrCjRWokDh-udOJpZP-28" vertex="1">
          <mxGeometry x="35" width="10" height="60" as="geometry" />
        </mxCell>
        <mxCell id="mMJrCjRWokDh-udOJpZP-62" value="D1" style="rounded=0;whiteSpace=wrap;html=1;strokeColor=none;" parent="mMJrCjRWokDh-udOJpZP-28" vertex="1">
          <mxGeometry width="40" height="60" as="geometry" />
        </mxCell>
        <mxCell id="mMJrCjRWokDh-udOJpZP-77" value="" style="line;strokeWidth=2;direction=south;html=1;" parent="mMJrCjRWokDh-udOJpZP-28" vertex="1">
          <mxGeometry width="10" height="60" as="geometry" />
        </mxCell>
        <mxCell id="mMJrCjRWokDh-udOJpZP-29" value="" style="group" parent="1" vertex="1" connectable="0">
          <mxGeometry x="110" y="940" width="120" height="60" as="geometry" />
        </mxCell>
        <mxCell id="mMJrCjRWokDh-udOJpZP-30" value="&amp;nbsp; &amp;nbsp; &amp;nbsp; &amp;nbsp; &amp;nbsp;ATM LIMIT" style="shape=partialRectangle;whiteSpace=wrap;html=1;left=0;right=0;fillColor=none;" parent="mMJrCjRWokDh-udOJpZP-29" vertex="1">
          <mxGeometry width="120" height="60" as="geometry" />
        </mxCell>
        <mxCell id="mMJrCjRWokDh-udOJpZP-31" value="" style="line;strokeWidth=2;direction=south;html=1;" parent="mMJrCjRWokDh-udOJpZP-29" vertex="1">
          <mxGeometry x="35" width="10" height="60" as="geometry" />
        </mxCell>
        <mxCell id="mMJrCjRWokDh-udOJpZP-61" value="D2" style="rounded=0;whiteSpace=wrap;html=1;strokeColor=none;" parent="mMJrCjRWokDh-udOJpZP-29" vertex="1">
          <mxGeometry width="40" height="60" as="geometry" />
        </mxCell>
        <mxCell id="mMJrCjRWokDh-udOJpZP-76" value="" style="line;strokeWidth=2;direction=south;html=1;" parent="mMJrCjRWokDh-udOJpZP-29" vertex="1">
          <mxGeometry width="10" height="60" as="geometry" />
        </mxCell>
        <mxCell id="80Ur0tt7wAr0ku26tHPa-12" style="edgeStyle=orthogonalEdgeStyle;rounded=0;orthogonalLoop=1;jettySize=auto;html=1;entryX=1;entryY=0.5;entryDx=0;entryDy=0;" edge="1" parent="1" source="mMJrCjRWokDh-udOJpZP-37" target="mMJrCjRWokDh-udOJpZP-22">
          <mxGeometry relative="1" as="geometry">
            <Array as="points">
              <mxPoint x="440" y="1120" />
              <mxPoint x="790" y="1120" />
              <mxPoint x="790" y="570" />
            </Array>
          </mxGeometry>
        </mxCell>
        <mxCell id="80Ur0tt7wAr0ku26tHPa-13" value="UPDATED DATA" style="edgeLabel;html=1;align=center;verticalAlign=middle;resizable=0;points=[];" vertex="1" connectable="0" parent="80Ur0tt7wAr0ku26tHPa-12">
          <mxGeometry x="0.6796" y="1" relative="1" as="geometry">
            <mxPoint as="offset" />
          </mxGeometry>
        </mxCell>
        <mxCell id="mMJrCjRWokDh-udOJpZP-37" value="4.0&lt;hr&gt;DATA UPDATER" style="ellipse;whiteSpace=wrap;html=1;" parent="1" vertex="1">
          <mxGeometry x="380" y="1005" width="120" height="80" as="geometry" />
        </mxCell>
        <mxCell id="mMJrCjRWokDh-udOJpZP-40" style="edgeStyle=orthogonalEdgeStyle;rounded=0;orthogonalLoop=1;jettySize=auto;html=1;entryX=1;entryY=0.5;entryDx=0;entryDy=0;" parent="1" source="mMJrCjRWokDh-udOJpZP-25" target="mMJrCjRWokDh-udOJpZP-37" edge="1">
          <mxGeometry relative="1" as="geometry" />
        </mxCell>
        <mxCell id="mMJrCjRWokDh-udOJpZP-72" value="BANK DATA" style="edgeLabel;html=1;align=center;verticalAlign=middle;resizable=0;points=[];" parent="mMJrCjRWokDh-udOJpZP-40" vertex="1" connectable="0">
          <mxGeometry x="0.0588" y="-1" relative="1" as="geometry">
            <mxPoint as="offset" />
          </mxGeometry>
        </mxCell>
        <mxCell id="mMJrCjRWokDh-udOJpZP-42" value="" style="endArrow=none;html=1;rounded=0;" parent="1" edge="1">
          <mxGeometry width="50" height="50" relative="1" as="geometry">
            <mxPoint x="60" y="974.5" as="sourcePoint" />
            <mxPoint x="110" y="974.5" as="targetPoint" />
          </mxGeometry>
        </mxCell>
        <mxCell id="mMJrCjRWokDh-udOJpZP-43" value="" style="endArrow=none;html=1;rounded=0;" parent="1" edge="1">
          <mxGeometry width="50" height="50" relative="1" as="geometry">
            <mxPoint x="60" y="975" as="sourcePoint" />
            <mxPoint x="60" y="1045" as="targetPoint" />
          </mxGeometry>
        </mxCell>
        <mxCell id="mMJrCjRWokDh-udOJpZP-44" value="" style="endArrow=classic;html=1;rounded=0;" parent="1" edge="1">
          <mxGeometry width="50" height="50" relative="1" as="geometry">
            <mxPoint x="60" y="1045" as="sourcePoint" />
            <mxPoint x="380" y="1045" as="targetPoint" />
          </mxGeometry>
        </mxCell>
        <mxCell id="mMJrCjRWokDh-udOJpZP-71" value="RECORD DATA" style="edgeLabel;html=1;align=center;verticalAlign=middle;resizable=0;points=[];" parent="mMJrCjRWokDh-udOJpZP-44" vertex="1" connectable="0">
          <mxGeometry x="-0.4" relative="1" as="geometry">
            <mxPoint as="offset" />
          </mxGeometry>
        </mxCell>
        <mxCell id="80Ur0tt7wAr0ku26tHPa-9" value="3.0&lt;hr&gt;DETAILS VERIFICATION" style="ellipse;whiteSpace=wrap;html=1;" vertex="1" parent="1">
          <mxGeometry x="365" y="660" width="120" height="80" as="geometry" />
        </mxCell>
        <mxCell id="80Ur0tt7wAr0ku26tHPa-15" value="PHYSICAL DFD" style="whiteSpace=wrap;html=1;" vertex="1" parent="1">
          <mxGeometry x="50" y="400" width="270" height="60" as="geometry" />
        </mxCell>
        <mxCell id="80Ur0tt7wAr0ku26tHPa-16" value="0&lt;hr&gt;CASH ENCHEQUE SYSTEM" style="ellipse;whiteSpace=wrap;html=1;" vertex="1" parent="1">
          <mxGeometry x="350" y="110" width="125" height="80" as="geometry" />
        </mxCell>
        <mxCell id="80Ur0tt7wAr0ku26tHPa-17" style="edgeStyle=orthogonalEdgeStyle;rounded=0;orthogonalLoop=1;jettySize=auto;html=1;entryX=0;entryY=0.375;entryDx=0;entryDy=0;entryPerimeter=0;" edge="1" parent="1" source="80Ur0tt7wAr0ku26tHPa-19" target="80Ur0tt7wAr0ku26tHPa-16">
          <mxGeometry relative="1" as="geometry" />
        </mxCell>
        <mxCell id="80Ur0tt7wAr0ku26tHPa-18" value="CHEQUE" style="edgeLabel;html=1;align=center;verticalAlign=middle;resizable=0;points=[];" vertex="1" connectable="0" parent="80Ur0tt7wAr0ku26tHPa-17">
          <mxGeometry x="-0.4" y="2" relative="1" as="geometry">
            <mxPoint as="offset" />
          </mxGeometry>
        </mxCell>
        <mxCell id="80Ur0tt7wAr0ku26tHPa-19" value="CUSTOMER" style="rounded=0;whiteSpace=wrap;html=1;" vertex="1" parent="1">
          <mxGeometry x="60" y="110" width="120" height="60" as="geometry" />
        </mxCell>
        <mxCell id="80Ur0tt7wAr0ku26tHPa-20" style="edgeStyle=orthogonalEdgeStyle;rounded=0;orthogonalLoop=1;jettySize=auto;html=1;entryX=0.692;entryY=1.017;entryDx=0;entryDy=0;entryPerimeter=0;" edge="1" parent="1" source="80Ur0tt7wAr0ku26tHPa-16" target="80Ur0tt7wAr0ku26tHPa-19">
          <mxGeometry relative="1" as="geometry">
            <mxPoint x="140" y="180" as="targetPoint" />
          </mxGeometry>
        </mxCell>
        <mxCell id="80Ur0tt7wAr0ku26tHPa-21" value="Text" style="edgeLabel;html=1;align=center;verticalAlign=middle;resizable=0;points=[];" vertex="1" connectable="0" parent="80Ur0tt7wAr0ku26tHPa-20">
          <mxGeometry x="0.451" y="3" relative="1" as="geometry">
            <mxPoint as="offset" />
          </mxGeometry>
        </mxCell>
        <mxCell id="80Ur0tt7wAr0ku26tHPa-22" value="CASH" style="edgeLabel;html=1;align=center;verticalAlign=middle;resizable=0;points=[];" vertex="1" connectable="0" parent="80Ur0tt7wAr0ku26tHPa-20">
          <mxGeometry x="0.4512" relative="1" as="geometry">
            <mxPoint as="offset" />
          </mxGeometry>
        </mxCell>
        <mxCell id="80Ur0tt7wAr0ku26tHPa-23" style="edgeStyle=orthogonalEdgeStyle;rounded=0;orthogonalLoop=1;jettySize=auto;html=1;entryX=0.967;entryY=0.363;entryDx=0;entryDy=0;entryPerimeter=0;" edge="1" parent="1" source="80Ur0tt7wAr0ku26tHPa-25" target="80Ur0tt7wAr0ku26tHPa-16">
          <mxGeometry relative="1" as="geometry" />
        </mxCell>
        <mxCell id="80Ur0tt7wAr0ku26tHPa-24" value="CASH" style="edgeLabel;html=1;align=center;verticalAlign=middle;resizable=0;points=[];" vertex="1" connectable="0" parent="80Ur0tt7wAr0ku26tHPa-23">
          <mxGeometry x="-0.5903" relative="1" as="geometry">
            <mxPoint as="offset" />
          </mxGeometry>
        </mxCell>
        <mxCell id="80Ur0tt7wAr0ku26tHPa-25" value="BANK" style="rounded=0;whiteSpace=wrap;html=1;" vertex="1" parent="1">
          <mxGeometry x="670" y="110" width="120" height="60" as="geometry" />
        </mxCell>
        <mxCell id="80Ur0tt7wAr0ku26tHPa-26" style="edgeStyle=orthogonalEdgeStyle;rounded=0;orthogonalLoop=1;jettySize=auto;html=1;entryX=0;entryY=0.75;entryDx=0;entryDy=0;" edge="1" parent="1" source="80Ur0tt7wAr0ku26tHPa-16" target="80Ur0tt7wAr0ku26tHPa-25">
          <mxGeometry relative="1" as="geometry" />
        </mxCell>
        <mxCell id="80Ur0tt7wAr0ku26tHPa-27" value="BANK DETAILS" style="edgeLabel;html=1;align=center;verticalAlign=middle;resizable=0;points=[];" vertex="1" connectable="0" parent="80Ur0tt7wAr0ku26tHPa-26">
          <mxGeometry x="0.19" y="2" relative="1" as="geometry">
            <mxPoint as="offset" />
          </mxGeometry>
        </mxCell>
        <mxCell id="80Ur0tt7wAr0ku26tHPa-28" style="edgeStyle=orthogonalEdgeStyle;rounded=0;orthogonalLoop=1;jettySize=auto;html=1;entryX=0.6;entryY=-0.037;entryDx=0;entryDy=0;entryPerimeter=0;" edge="1" parent="1" source="80Ur0tt7wAr0ku26tHPa-16">
          <mxGeometry relative="1" as="geometry">
            <mxPoint x="422" y="287.03999999999996" as="targetPoint" />
          </mxGeometry>
        </mxCell>
        <mxCell id="80Ur0tt7wAr0ku26tHPa-29" value="TRANSACTION RECORDS" style="edgeLabel;html=1;align=center;verticalAlign=middle;resizable=0;points=[];" vertex="1" connectable="0" parent="80Ur0tt7wAr0ku26tHPa-28">
          <mxGeometry x="-0.1779" y="-2" relative="1" as="geometry">
            <mxPoint as="offset" />
          </mxGeometry>
        </mxCell>
        <mxCell id="80Ur0tt7wAr0ku26tHPa-30" value="ATM" style="rounded=0;whiteSpace=wrap;html=1;" vertex="1" parent="1">
          <mxGeometry x="365" y="290" width="120" height="60" as="geometry" />
        </mxCell>
        <mxCell id="80Ur0tt7wAr0ku26tHPa-31" value="LOGICAL DFD" style="whiteSpace=wrap;html=1;" vertex="1" parent="1">
          <mxGeometry x="15" y="20" width="270" height="60" as="geometry" />
        </mxCell>
        <mxCell id="80Ur0tt7wAr0ku26tHPa-32" value="0&lt;hr&gt;CASH ENCHEQUE SYSTEM" style="ellipse;whiteSpace=wrap;html=1;" vertex="1" parent="1">
          <mxGeometry x="360" y="1280" width="125" height="80" as="geometry" />
        </mxCell>
        <mxCell id="80Ur0tt7wAr0ku26tHPa-33" style="edgeStyle=orthogonalEdgeStyle;rounded=0;orthogonalLoop=1;jettySize=auto;html=1;entryX=0;entryY=0.375;entryDx=0;entryDy=0;entryPerimeter=0;" edge="1" parent="1" source="80Ur0tt7wAr0ku26tHPa-35" target="80Ur0tt7wAr0ku26tHPa-32">
          <mxGeometry relative="1" as="geometry" />
        </mxCell>
        <mxCell id="80Ur0tt7wAr0ku26tHPa-34" value="CHEQUE" style="edgeLabel;html=1;align=center;verticalAlign=middle;resizable=0;points=[];" vertex="1" connectable="0" parent="80Ur0tt7wAr0ku26tHPa-33">
          <mxGeometry x="-0.4" y="2" relative="1" as="geometry">
            <mxPoint as="offset" />
          </mxGeometry>
        </mxCell>
        <mxCell id="80Ur0tt7wAr0ku26tHPa-35" value="CUSTOMER" style="rounded=0;whiteSpace=wrap;html=1;" vertex="1" parent="1">
          <mxGeometry x="70" y="1280" width="120" height="60" as="geometry" />
        </mxCell>
        <mxCell id="80Ur0tt7wAr0ku26tHPa-36" style="edgeStyle=orthogonalEdgeStyle;rounded=0;orthogonalLoop=1;jettySize=auto;html=1;entryX=0.692;entryY=1.017;entryDx=0;entryDy=0;entryPerimeter=0;" edge="1" parent="1" source="80Ur0tt7wAr0ku26tHPa-32" target="80Ur0tt7wAr0ku26tHPa-35">
          <mxGeometry relative="1" as="geometry">
            <mxPoint x="150" y="1350" as="targetPoint" />
          </mxGeometry>
        </mxCell>
        <mxCell id="80Ur0tt7wAr0ku26tHPa-37" value="Text" style="edgeLabel;html=1;align=center;verticalAlign=middle;resizable=0;points=[];" vertex="1" connectable="0" parent="80Ur0tt7wAr0ku26tHPa-36">
          <mxGeometry x="0.451" y="3" relative="1" as="geometry">
            <mxPoint as="offset" />
          </mxGeometry>
        </mxCell>
        <mxCell id="80Ur0tt7wAr0ku26tHPa-38" value="CASH" style="edgeLabel;html=1;align=center;verticalAlign=middle;resizable=0;points=[];" vertex="1" connectable="0" parent="80Ur0tt7wAr0ku26tHPa-36">
          <mxGeometry x="0.4512" relative="1" as="geometry">
            <mxPoint as="offset" />
          </mxGeometry>
        </mxCell>
        <mxCell id="80Ur0tt7wAr0ku26tHPa-39" style="edgeStyle=orthogonalEdgeStyle;rounded=0;orthogonalLoop=1;jettySize=auto;html=1;entryX=0.967;entryY=0.363;entryDx=0;entryDy=0;entryPerimeter=0;" edge="1" parent="1" source="80Ur0tt7wAr0ku26tHPa-41" target="80Ur0tt7wAr0ku26tHPa-32">
          <mxGeometry relative="1" as="geometry" />
        </mxCell>
        <mxCell id="80Ur0tt7wAr0ku26tHPa-40" value="CASH" style="edgeLabel;html=1;align=center;verticalAlign=middle;resizable=0;points=[];" vertex="1" connectable="0" parent="80Ur0tt7wAr0ku26tHPa-39">
          <mxGeometry x="-0.5903" relative="1" as="geometry">
            <mxPoint as="offset" />
          </mxGeometry>
        </mxCell>
        <mxCell id="80Ur0tt7wAr0ku26tHPa-41" value="BANK" style="rounded=0;whiteSpace=wrap;html=1;" vertex="1" parent="1">
          <mxGeometry x="680" y="1280" width="120" height="60" as="geometry" />
        </mxCell>
        <mxCell id="80Ur0tt7wAr0ku26tHPa-42" style="edgeStyle=orthogonalEdgeStyle;rounded=0;orthogonalLoop=1;jettySize=auto;html=1;entryX=0;entryY=0.75;entryDx=0;entryDy=0;" edge="1" parent="1" source="80Ur0tt7wAr0ku26tHPa-32" target="80Ur0tt7wAr0ku26tHPa-41">
          <mxGeometry relative="1" as="geometry" />
        </mxCell>
        <mxCell id="80Ur0tt7wAr0ku26tHPa-43" value="BANK DETAILS" style="edgeLabel;html=1;align=center;verticalAlign=middle;resizable=0;points=[];" vertex="1" connectable="0" parent="80Ur0tt7wAr0ku26tHPa-42">
          <mxGeometry x="0.19" y="2" relative="1" as="geometry">
            <mxPoint as="offset" />
          </mxGeometry>
        </mxCell>
        <mxCell id="80Ur0tt7wAr0ku26tHPa-44" style="edgeStyle=orthogonalEdgeStyle;rounded=0;orthogonalLoop=1;jettySize=auto;html=1;entryX=0.6;entryY=-0.037;entryDx=0;entryDy=0;entryPerimeter=0;" edge="1" parent="1" source="80Ur0tt7wAr0ku26tHPa-32">
          <mxGeometry relative="1" as="geometry">
            <mxPoint x="432" y="1457.04" as="targetPoint" />
          </mxGeometry>
        </mxCell>
        <mxCell id="80Ur0tt7wAr0ku26tHPa-45" value="TRANSACTION RECORDS" style="edgeLabel;html=1;align=center;verticalAlign=middle;resizable=0;points=[];" vertex="1" connectable="0" parent="80Ur0tt7wAr0ku26tHPa-44">
          <mxGeometry x="-0.1779" y="-2" relative="1" as="geometry">
            <mxPoint as="offset" />
          </mxGeometry>
        </mxCell>
        <mxCell id="80Ur0tt7wAr0ku26tHPa-46" value="ATM" style="rounded=0;whiteSpace=wrap;html=1;" vertex="1" parent="1">
          <mxGeometry x="375" y="1460" width="120" height="60" as="geometry" />
        </mxCell>
        <mxCell id="80Ur0tt7wAr0ku26tHPa-47" value="LOGICAL DFD" style="whiteSpace=wrap;html=1;" vertex="1" parent="1">
          <mxGeometry x="25" y="1190" width="270" height="60" as="geometry" />
        </mxCell>
      </root>
    </mxGraphModel>
  </diagram>
</mxfile>
